<?xml version="1.0" encoding="utf-8"?>
<!-- Generator: Adobe Illustrator 25.0.0, SVG Export Plug-In . SVG Version: 6.00 Build 0)  -->
<svg version="1.1" id="Layer_1" xmlns="http://www.w3.org/2000/svg" xmlns:xlink="http://www.w3.org/1999/xlink" x="0px" y="0px"
	 viewBox="0 0 900 900" style="enable-background:new 0 0 900 900;" xml:space="preserve">
<style type="text/css">
	.st0{opacity:0.8;fill:#FF214F;}
	.st1{fill:#FFFFFF;}
</style>
<circle class="st0" cx="450" cy="450" r="450"/>
<g>
	<path class="st1" d="M668,254H236c-17.7,0-32,14.3-32,32v272c0,17.7,14.3,32,32,32h164.9l-10.7,32H364c-4.4,0-8,3.6-8,8v16h-72
		c-4.4,0-8,3.6-8,8s3.6,8,8,8h352c4.4,0,8-3.6,8-8s-3.6-8-8-8h-88v-16c0-4.4-3.6-8-8-8h-26.2l-10.7-32H668c17.7,0,32-14.3,32-32V286
		C700,268.3,685.7,254,668,254z M532,638v8H372v-8H532z M407.1,622l10.7-32h68.5l10.7,32H407.1z M684,558c0,8.8-7.2,16-16,16H236
		c-8.8,0-16-7.2-16-16v-16h464V558z M339.7,454l-3,72h-9.3l-3-72H339.7z M325.4,438l5.3-32h2.4l5.3,32H325.4z M332,390
		c-8.7,0-16-11-16-24c0-8.2,8.4-20.1,16-28.5c6.9,7.6,16,19.8,16,28.5C348,379,340.7,390,332,390z M419.1,374l0.9,1.9v6.1h-32v-6.1
		l0.9-1.9H419.1z M396.9,358l7.1-14.1l7.1,14.1H396.9z M420,398v127c0,0.3,0,0.7,0.1,1h-32.1c0-0.3,0.1-0.7,0.1-1V398H420z M492,366
		h24v16h-8c-4.4,0-8,3.6-8,8s3.6,8,8,8h8v16h-24c-4.4,0-8,3.6-8,8s3.6,8,8,8h24v16h-8c-4.4,0-8,3.6-8,8s3.6,8,8,8h8v16h-24
		c-4.4,0-8,3.6-8,8s3.6,8,8,8h24v32h-56V334h56v16h-24c-4.4,0-8,3.6-8,8S487.6,366,492,366z M588,462v63c0,0.3,0,0.7,0.1,1h-32.1
		c0-0.3,0.1-0.7,0.1-1v-63H588z M556,446v-6.1l16-32l16,32v6.1H556z M684,526h-80.1c0-0.3,0.1-0.7,0.1-1v-87c0-1.2-0.3-2.5-0.8-3.6
		l-24-48c-2-4-6.8-5.6-10.7-3.6c-1.5,0.8-2.8,2-3.6,3.6l-24,48c-0.6,1.1-0.8,2.3-0.8,3.6v87c0,0.3,0,0.7,0.1,1H532V326
		c0-4.4-3.6-8-8-8h-72c-4.4,0-8,3.6-8,8v200h-8.1c0-0.3,0.1-0.7,0.1-1V374c0-1.2-0.3-2.5-0.8-3.6l-24-48c-2-4-6.8-5.6-10.7-3.6
		c-1.5,0.8-2.8,2-3.6,3.6l-24,48c-0.6,1.1-0.8,2.3-0.8,3.6v151c0,0.3,0,0.7,0.1,1h-19.4l3.3-79.7c0-0.2,0-0.4,0-0.6v-0.2
		c0-0.3-0.1-0.6-0.1-0.8v0l-7.4-44.4c9.3-7,15.5-19.7,15.5-34.3c0-20.6-23.8-43.3-26.5-45.9c-3.1-2.8-7.8-2.8-10.9,0
		c-2.7,2.5-26.6,25.3-26.6,45.9c0,14.5,6.2,27.3,15.5,34.3l-7.4,44.4v0c0,0.3-0.1,0.6-0.1,0.8v0.2c0,0.2,0,0.4,0,0.5l3.3,79.7H220
		V286c0-8.8,7.2-16,16-16h432c8.8,0,16,7.2,16,16V526z"/>
	<path class="st1" d="M292,550h-48c-4.4,0-8,3.6-8,8s3.6,8,8,8h48c4.4,0,8-3.6,8-8S296.4,550,292,550z"/>
	<path class="st1" d="M324,550h-8c-4.4,0-8,3.6-8,8s3.6,8,8,8h8c4.4,0,8-3.6,8-8S328.4,550,324,550z"/>
	<path class="st1" d="M404,406c-4.4,0-8,3.6-8,8v88c0,4.4,3.6,8,8,8s8-3.6,8-8v-88C412,409.6,408.4,406,404,406z"/>
	<path class="st1" d="M572,470c-4.4,0-8,3.6-8,8v24c0,4.4,3.6,8,8,8s8-3.6,8-8v-24C580,473.6,576.4,470,572,470z"/>
	<path class="st1" d="M244,302h64c4.4,0,8-3.6,8-8s-3.6-8-8-8h-64c-4.4,0-8,3.6-8,8S239.6,302,244,302z"/>
	<path class="st1" d="M244,326h16c4.4,0,8-3.6,8-8s-3.6-8-8-8h-16c-4.4,0-8,3.6-8,8S239.6,326,244,326z"/>
	<path class="st1" d="M628,510h32c4.4,0,8-3.6,8-8s-3.6-8-8-8h-32c-4.4,0-8,3.6-8,8S623.6,510,628,510z"/>
	<path class="st1" d="M652,486h8c4.4,0,8-3.6,8-8s-3.6-8-8-8h-8c-4.4,0-8,3.6-8,8S647.6,486,652,486z"/>
</g>
</svg>
