<?xml version="1.0" encoding="utf-8"?>
<!-- Generator: Adobe Illustrator 25.0.0, SVG Export Plug-In . SVG Version: 6.00 Build 0)  -->
<svg version="1.1" id="Layer_1" xmlns="http://www.w3.org/2000/svg" xmlns:xlink="http://www.w3.org/1999/xlink" x="0px" y="0px"
	 viewBox="0 0 512 512" style="enable-background:new 0 0 512 512;" xml:space="preserve">
<style type="text/css">
	.st0{fill:#FF214F;}
</style>
<g id="Outline">
	<path class="st0" d="M29.7,258.3c-3.1-3.1-8.2-3.1-11.3,0c-1.5,1.5-2.3,3.5-2.3,5.7v224c0,4.4,3.6,8,8,8h224c4.4,0,8-3.6,8-8
		c0-2.1-0.8-4.2-2.3-5.7L29.7,258.3z M32,480V283.3L228.7,480H32z"/>
	<path class="st0" d="M72,448h64c4.4,0,8-3.6,8-8c0-2.1-0.8-4.2-2.3-5.7l-64-64c-3.1-3.1-8.2-3.1-11.3,0c-1.5,1.5-2.3,3.5-2.3,5.7
		v64C64,444.4,67.6,448,72,448z M80,395.3l36.7,36.7H80V395.3z"/>
	<path class="st0" d="M104,48h16v16h-16V48z"/>
	<path class="st0" d="M136,48h16v16h-16V48z"/>
	<path class="st0" d="M168,48h16v16h-16V48z"/>
	<path class="st0" d="M180.8,160.7c-2.9,1.3-4.8,4.1-4.8,7.3v88c0,3.2,1.9,6,4.8,7.3l72,32c2.1,0.9,4.4,0.9,6.5,0v0l72-32
		c2.9-1.3,4.7-4.1,4.7-7.3v-88c0-3.2-1.8-6-4.8-7.3v0l-72-32c-2.1-0.9-4.4-0.9-6.5,0L180.8,160.7L180.8,160.7z M248,275.7l-56-24.9
		v-70.5l56,24.9V275.7z M320,250.8l-56,24.9v-70.5l56-24.9V250.8z M256,144.8l52.3,23.2L256,191.2L203.7,168L256,144.8z"/>
	<path class="st0" d="M248,320h16v40h-16V320z"/>
	<path class="st0" d="M248,72h16v40h-16V72z"/>
	<path class="st0" d="M116.5,151.3l6.9-14.4l33.5,16l-6.9,14.4L116.5,151.3z"/>
	<path class="st0" d="M354.9,152.7l33.5-16l6.9,14.4l-33.5,16L354.9,152.7z"/>
	<path class="st0" d="M116.5,280.7l33.5-16l6.9,14.4l-33.5,16L116.5,280.7z"/>
	<path class="st0" d="M488,384h-48V259.3l47-47c12-12,12-31.4,0-43.3c-12-12-31.4-12-43.3,0l0,0l-3.7,3.7V104c0-2.1-0.8-4.2-2.3-5.7
		l-80-80c-1.5-1.5-3.5-2.3-5.7-2.3H104c-17.7,0-32,14.3-32,32v232h16V48c0-8.8,7.2-16,16-16h240v48c0,17.7,14.3,32,32,32h48v76.7
		L298.3,314.3c-1.1,1.1-1.9,2.5-2.2,4.1l-8,40c-0.9,4.3,1.9,8.5,6.3,9.4c1,0.2,2.1,0.2,3.1,0l40-8c1.5-0.3,3-1.1,4.1-2.2l82.3-82.3
		V384H264c-4.4,0-8,3.6-8,8v24h-40v16h40v24c0,4.4,3.6,8,8,8h224c4.4,0,8-3.6,8-8v-64C496,387.6,492.4,384,488,384L488,384z M360,80
		V43.3L412.7,96H376C367.2,96,360,88.8,360,80z M315.3,320L440,195.3l20.7,20.7L336,340.7L315.3,320z M465.4,176
		c8.1,0,14.6,6.6,14.6,14.6c0,3.9-1.5,7.6-4.3,10.3l-3.7,3.7L451.3,184l3.7-3.7C457.8,177.5,461.5,176,465.4,176L465.4,176z
		 M308.9,336.2l10.9,10.9l-13.6,2.7L308.9,336.2z M480,448H272v-48h16v16h16v-16h16v16h16v-16h16v16h16v-16h16v16h16v-16h16v16h16
		v-16h16v16h16v-16h16V448z"/>
</g>
</svg>
