<?xml version="1.0" encoding="utf-8"?>
<!-- Generator: Adobe Illustrator 25.0.0, SVG Export Plug-In . SVG Version: 6.00 Build 0)  -->
<svg version="1.1" id="Layer_1" xmlns="http://www.w3.org/2000/svg" xmlns:xlink="http://www.w3.org/1999/xlink" x="0px" y="0px"
	 viewBox="0 0 843.3 843.3" style="enable-background:new 0 0 843.3 843.3;" xml:space="preserve">
<style type="text/css">
	.st0{fill:#FFFFFF;}
</style>
<g>
	<g>
		<circle cx="421.6" cy="421.6" r="421.6"/>
	</g>
	<path class="st0" d="M539.1,165.6H304.2c-76.4,0-138.6,62.2-138.6,138.6v234.8c0,76.4,62.2,138.6,138.6,138.6h234.8
		c76.4,0,138.6-62.2,138.6-138.6V304.2C677.6,227.8,615.5,165.6,539.1,165.6z M647.6,539.1c0,59.9-48.7,108.6-108.6,108.6H304.2
		c-59.9,0-108.6-48.7-108.6-108.6V304.2c0-59.9,48.7-108.6,108.6-108.6h234.8c59.9,0,108.6,48.7,108.6,108.6V539.1z"/>
	<path class="st0" d="M421.6,281.7c-77.2,0-140,62.8-140,140s62.8,140,140,140s140-62.8,140-140S498.8,281.7,421.6,281.7z
		 M421.6,531.6c-60.6,0-110-49.3-110-110c0-60.6,49.3-110,110-110c60.6,0,110,49.3,110,110C531.6,482.3,482.3,531.6,421.6,531.6z"/>
	<path class="st0" d="M565,231.9c-22.8,0-41.4,18.6-41.4,41.4c0,22.8,18.6,41.4,41.4,41.4s41.4-18.6,41.4-41.4
		S587.8,231.9,565,231.9z M565,284.7c-6.3,0-11.4-5.1-11.4-11.4c0-6.3,5.1-11.4,11.4-11.4c6.3,0,11.4,5.1,11.4,11.4
		C576.3,279.6,571.3,284.7,565,284.7z"/>
</g>
</svg>
