<?xml version="1.0" encoding="utf-8"?>
<!-- Generator: Adobe Illustrator 25.0.0, SVG Export Plug-In . SVG Version: 6.00 Build 0)  -->
<svg version="1.1" id="Capa_1" xmlns="http://www.w3.org/2000/svg" xmlns:xlink="http://www.w3.org/1999/xlink" x="0px" y="0px"
	 viewBox="0 0 881.7 881.7" style="enable-background:new 0 0 881.7 881.7;" xml:space="preserve">
<style type="text/css">
	.st0{fill:#FFFFFF;}
</style>
<g>
	<circle cx="440.9" cy="440.9" r="440.9"/>
	<g>
		<g>
			<path class="st0" d="M231.5,653.2h67c9.2,0,16.7-7.5,16.7-16.7V343.5c0-9.2-7.5-16.7-16.7-16.7h-67c-9.2,0-16.7,7.5-16.7,16.7
				v292.9C214.8,645.7,222.2,653.2,231.5,653.2z"/>
			<path class="st0" d="M231.5,275.3h67c9.2,0,16.7-7.5,16.7-16.7v-59.5c0-9.2-7.5-16.7-16.7-16.7h-67c-9.2,0-16.7,7.5-16.7,16.7
				v59.5C214.8,267.8,222.2,275.3,231.5,275.3z"/>
			<path class="st0" d="M705,360.8c-9.4-12.4-23.3-22.6-41.7-30.6c-18.4-8-38.6-12-60.8-12c-45,0-83.1,17.2-114.4,51.5
				c-6.2,6.8-10.7,5.3-10.7-3.9v-22.3c0-9.2-7.5-16.7-16.7-16.7h-59.9c-9.2,0-16.7,7.5-16.7,16.7v292.9c0,9.2,7.5,16.7,16.7,16.7h67
				c9.2,0,16.7-7.5,16.7-16.7V534.6c0-42.4,2.6-71.5,7.7-87.3c5.1-15.7,14.6-28.4,28.4-37.9c13.8-9.5,29.4-14.3,46.8-14.3
				c13.6,0,25.2,3.3,34.9,10c9.7,6.7,16.6,16,20.9,28.1c4.3,12,6.4,38.6,6.4,79.6v123.7c0,9.2,7.5,16.7,16.7,16.7h67
				c9.2,0,16.7-7.5,16.7-16.7V470.6c0-29.3-1.8-51.8-5.5-67.6C720.9,387.2,714.4,373.2,705,360.8z"/>
		</g>
	</g>
</g>
</svg>
