<svg id="Layer_1" data-name="Layer 1" xmlns="http://www.w3.org/2000/svg" xmlns:xlink="http://www.w3.org/1999/xlink" viewBox="0 0 896.35 442.72"><defs><style>.cls-1{fill:url(#New_Gradient_Swatch);}.cls-2{fill:url(#linear-gradient);}.cls-3{fill:url(#New_Gradient_Swatch-2);}.cls-4{fill:url(#linear-gradient-2);}.cls-5{fill:url(#linear-gradient-3);}.cls-6{fill:url(#linear-gradient-4);}.cls-7{fill:url(#linear-gradient-5);}</style><linearGradient id="New_Gradient_Swatch" y1="242.56" x2="98.98" y2="242.56" gradientUnits="userSpaceOnUse"><stop offset="0" stop-color="#ff036a"/><stop offset="1" stop-color="#ff036a"/></linearGradient><linearGradient id="linear-gradient" x1="234.35" y1="224.5" x2="847.51" y2="224.5" gradientUnits="userSpaceOnUse"><stop offset="0" stop-color="#ff036a"/><stop offset="0.13" stop-color="#f70369"/><stop offset="0.32" stop-color="#e30268"/><stop offset="0.55" stop-color="#c00265"/><stop offset="0.81" stop-color="#920160"/><stop offset="1" stop-color="#6b005d"/></linearGradient><linearGradient id="New_Gradient_Swatch-2" x1="561.61" y1="307.02" x2="896.35" y2="307.02" xlink:href="#New_Gradient_Swatch"/><linearGradient id="linear-gradient-2" x1="50.4" y1="361.09" x2="272.99" y2="361.09" gradientUnits="userSpaceOnUse"><stop offset="0" stop-color="#ff036a"/><stop offset="0.16" stop-color="#ef0369"/><stop offset="0.46" stop-color="#c30265"/><stop offset="0.89" stop-color="#7f005f"/><stop offset="1" stop-color="#6b005d"/></linearGradient><linearGradient id="linear-gradient-3" x1="40" y1="87.24" x2="40" y2="7.24" xlink:href="#linear-gradient-2"/><linearGradient id="linear-gradient-4" x1="274.35" y1="80" x2="274.35" y2="0" xlink:href="#linear-gradient-2"/><linearGradient id="linear-gradient-5" x1="548.37" y1="220.11" x2="716.24" y2="220.11" gradientUnits="userSpaceOnUse"><stop offset="0" stop-color="#6b005d"/><stop offset="0.11" stop-color="#81005f"/><stop offset="0.47" stop-color="#c50265"/><stop offset="0.73" stop-color="#ef0369"/><stop offset="0.86" stop-color="#ff036a"/></linearGradient></defs><path class="cls-1" d="M80,282.51h0V87.24H0v200H.08A156.08,156.08,0,0,0,46,393.67c1.43,1.43,2.9,2.83,4.38,4.2L99,333.11A76.82,76.82,0,0,1,80,282.51Z"/><path class="cls-2" d="M554.81,180.11a133.84,133.84,0,0,1,231-45.11l61.7-50.92a213.24,213.24,0,0,0-165-77.8c-117.9,0-213.83,95.92-213.83,213.83h0v65.43a77.18,77.18,0,0,1-154.36,0V80h-80V282.51C234.35,341,273,388.8,273,388.8q3.54,4.05,7.38,7.9a157.16,157.16,0,0,0,268.3-108.58h0v-28S546.23,201,554.81,180.11Z"/><path class="cls-3" d="M716.24,180.11v80h94A133.85,133.85,0,0,1,606.9,330.52l-45.29,66A213.83,213.83,0,0,0,896.35,220.11v-40Z"/><path class="cls-4" d="M157.18,359.68A77,77,0,0,1,99,333.11L50.4,397.87a157.27,157.27,0,0,0,217.94-4.2q2.39-2.4,4.65-4.87S234.35,341,234.35,282.51A77.26,77.26,0,0,1,157.18,359.68Z"/><path class="cls-5" d="M0,7.24v80H80A80,80,0,0,0,0,7.24Z"/><path class="cls-6" d="M234.35,0V80h80A80,80,0,0,0,234.35,0Z"/><path class="cls-7" d="M554.81,180.11c-8.58,20.89-6.1,80-6.1,80H716.24v-80Z"/></svg>