<?xml version="1.0" encoding="utf-8"?>
<!-- Generator: Adobe Illustrator 25.0.0, SVG Export Plug-In . SVG Version: 6.00 Build 0)  -->
<svg version="1.1" id="Layer_1" xmlns="http://www.w3.org/2000/svg" xmlns:xlink="http://www.w3.org/1999/xlink" x="0px" y="0px"
	 viewBox="0 0 900 900" style="enable-background:new 0 0 900 900;" xml:space="preserve">
<style type="text/css">
	.st0{opacity:0.8;fill:#FF214F;}
	.st1{fill:#FFFFFF;}
	.st2{fill:#FFFFFF;stroke:#000000;stroke-width:13;stroke-miterlimit:10;}
</style>
<circle class="st0" cx="450" cy="450" r="450"/>
<g>
	<path class="st1" d="M463.7,562.5c-17.9,3.9-36-0.1-50.4-9.9c2.5-5.5,4-11.3,4.5-17.4c73.8,21.7,146.3-34.6,146.3-108.8v-69.9
		c0-32.9-26.8-59.7-59.7-59.7H395.6c-32.9,0-59.7,26.8-59.7,59.7v55.3c-5.7-3-9.6-8.8-9.6-15.6v-44.3c0-119.1,95-153.5,183.8-122.6
		l-6.8,2.8c-8.1,3.4-6.4,15.4,2.3,16.4l15,1.6c28.9,3.1,54.4,18.1,70.7,41.5c-10.7,13-16.6,29.3-16.6,46.4v58.2
		c0,4.7,3.8,8.5,8.5,8.5c4.7,0,8.5-3.8,8.5-8.5V338c0-14.8,5.7-28.8,16.1-39.4c1.6-1.6,2.2-3.4,2.4-5.4c0.4-3.3-1.1-5.4-2-6.7
		c-16.2-25.7-41.3-43.6-70.5-50.7c4.7-3.9,3.8-11.5-1.8-14.2c-57.6-27.7-135.9-30.7-184.7,16.4c-39.5,38.1-42.8,92.3-42.3,114v44.2
		c0,16.3,11.4,30,26.7,33.7c1.6,43.6,27.7,81,65,98.8v2.2c0,19.7-16,35.6-35.7,35.6c-48.7,0-88.1,39.4-88.1,88.1V705
		c0,4.7,3.8,8.5,8.5,8.5c4.7,0,8.5-3.8,8.5-8.5v-50.4c0-39.2,31.8-71,71-71c-3.2,0,20.6,2.5,38.6-16.8c18.2,12.4,41,17.3,63.5,12.4
		c4.6-1,7.5-5.5,6.5-10.2C472.9,564.4,468.3,561.5,463.7,562.5z M352.9,425.7v-69.2c0-23.5,19.1-42.7,42.7-42.7h108.8
		c23.5,0,42.7,19.1,42.7,42.7v69.2c0,53.5-43.5,97.1-97.1,97.1C396.5,522.7,352.9,479.2,352.9,425.7z"/>
	<path class="st1" d="M534.7,566.5c-12.6,0-24-6.4-30.5-17.1c-2.5-4-7.7-5.3-11.7-2.8c-4,2.5-5.3,7.7-2.9,11.7
		c9.7,15.8,26.5,25.3,45.1,25.3c39.2,0,71,31.8,71,71V705c0,4.7,3.8,8.5,8.5,8.5c4.7,0,8.5-3.8,8.5-8.5v-50.4v0
		C622.8,605.9,583.4,566.5,534.7,566.5z"/>
	<path class="st1" d="M536.4,669.8h-25.6c-4.7,0-8.5,3.8-8.5,8.5c0,4.7,3.8,8.5,8.5,8.5h25.6c4.7,0,8.5-3.8,8.5-8.5
		C544.9,673.6,541.1,669.8,536.4,669.8z"/>
	<path class="st2" d="M488,450"/>
	<path class="st2" d="M449,475.5"/>
	<path class="st2" d="M410,450"/>
	<path class="st1" d="M451.2,479.2c-27.2,0-53.8-39-53.8-36.6c0,28,24.1,50.6,53.8,50.6c29.7,0,53.8-22.7,53.8-50.6
		c0-1.5-10.2,12.9-24.3,24C471.9,473.5,461.6,479.2,451.2,479.2z"/>
</g>
</svg>
