<?xml version="1.0" encoding="utf-8"?>
<!-- Generator: Adobe Illustrator 25.0.0, SVG Export Plug-In . SVG Version: 6.00 Build 0)  -->
<svg version="1.1" id="Capa_1" xmlns="http://www.w3.org/2000/svg" xmlns:xlink="http://www.w3.org/1999/xlink" x="0px" y="0px"
	 viewBox="0 0 900 900" style="enable-background:new 0 0 900 900;" xml:space="preserve">
<style type="text/css">
	.st0{opacity:0.8;fill:#FF214F;}
	.st1{fill:#FFFFFF;}
</style>
<circle class="st0" cx="450" cy="450" r="450"/>
<g>
	<path class="st1" d="M702.8,258.6c-0.3-0.3-60.4-57.6-60.4-57.6c-2.3-2.2-4.7-4.5-9.1-4.5H391.1c-7.1,0-12.8,5.8-12.8,12.8v39.4
		l-85.3,14.6c-6.8,1.2-11.4,7.7-10.3,14.6l4.3,25.3c-27.7,9.3-56.2,19-83.7,28.8c-6.5,2.4-9.9,9.6-7.6,16.1l54.7,152
		c1.1,3.1,4,5,7.1,5c0.8,0,1.7-0.1,2.5-0.4c3.9-1.4,5.9-5.7,4.5-9.6l-53.9-149.8c25.9-9.3,52.7-18.3,78.9-27.2l25.8,150.2l29.7,173
		c1.1,6.1,6.4,10.5,12.5,10.5c0.7,0,1.4-0.1,2.1-0.2l80.3-13.8l62.8-10.8l-94.4,33.9l-74.4,26.8L276,527c-1.4-3.9-5.7-5.9-9.6-4.5
		c-3.9,1.4-5.9,5.7-4.5,9.6l58.6,163.1c1.9,5.1,6.7,8.3,11.9,8.3c1.4,0,2.9-0.2,4.3-0.8l76.7-27.6l174.1-62.6l33.3-5.7h73.5
		c7.1,0,12.8-5.8,12.8-12.9v-327C707,262.6,704.6,260.3,702.8,258.6L702.8,258.6z M682.9,260.4h-37.5l-0.9,0c-1.8,0-6,0-7.1-1
		c-0.2-0.2-0.5-1.1-0.5-2.6l-0.1-40.4L682.9,260.4z M692,591.9H393.3V445.7c0-4.1-3.4-7.5-7.5-7.5s-7.5,3.4-7.5,7.5v148.3
		c0,7.1,5.8,12.9,12.8,12.9h140.8l-94.5,16.2l-78,13.4l-29.2-170.7l-32.3-188.1l80.4-13.8v147c0,4.1,3.4,7.5,7.5,7.5
		s7.5-3.4,7.5-7.5V211.5h228.5l0.1,45.3c0,5.5,1.7,9.9,5,13.2c5.1,5,12.2,5.4,16.7,5.4c0.4,0,0.7,0,1.1,0l47.4,0V591.9z"/>
	<path class="st1" d="M429.4,312.9c0,4.1,3.4,7.5,7.5,7.5h214.4c4.1,0,7.5-3.4,7.5-7.5s-3.4-7.5-7.5-7.5H436.9
		C432.8,305.4,429.4,308.8,429.4,312.9z"/>
	<path class="st1" d="M651.4,358.7H436.9c-4.1,0-7.5,3.4-7.5,7.5s3.4,7.5,7.5,7.5h214.4c4.1,0,7.5-3.4,7.5-7.5
		S655.5,358.7,651.4,358.7z"/>
	<path class="st1" d="M651.4,412H436.9c-4.1,0-7.5,3.4-7.5,7.5s3.4,7.5,7.5,7.5h214.4c4.1,0,7.5-3.4,7.5-7.5S655.5,412,651.4,412z"
		/>
	<path class="st1" d="M651.4,465.3H436.9c-4.1,0-7.5,3.4-7.5,7.5s3.4,7.5,7.5,7.5h214.4c4.1,0,7.5-3.4,7.5-7.5
		S655.5,465.3,651.4,465.3z"/>
	<path class="st1" d="M651.4,518.6H436.9c-4.1,0-7.5,3.4-7.5,7.5c0,4.1,3.4,7.5,7.5,7.5h214.4c4.1,0,7.5-3.4,7.5-7.5
		C658.9,521.9,655.5,518.6,651.4,518.6z"/>
</g>
</svg>
