<?xml version="1.0" encoding="utf-8"?>
<!-- Generator: Adobe Illustrator 25.0.0, SVG Export Plug-In . SVG Version: 6.00 Build 0)  -->
<svg version="1.1" id="Capa_1" xmlns="http://www.w3.org/2000/svg" xmlns:xlink="http://www.w3.org/1999/xlink" x="0px" y="0px"
	 viewBox="0 0 512 512" style="enable-background:new 0 0 512 512;" xml:space="preserve">
<style type="text/css">
	.st0{fill:#FF214F;}
</style>
<circle class="st0" cx="48.9" cy="54" r="10.1"/>
<circle class="st0" cx="90.3" cy="54" r="10.1"/>
<circle class="st0" cx="131.8" cy="54" r="10.1"/>
<path class="st0" d="M484.5,16.2h-457C12.3,16.2,0,28.5,0,43.7v162.8c0,4.1,3.4,7.5,7.5,7.5s7.5-3.4,7.5-7.5V91.8h482v34.8
	c0,4.1,3.4,7.5,7.5,7.5s7.5-3.4,7.5-7.5V43.7C512,28.5,499.7,16.2,484.5,16.2z M15,76.8V43.7c0-6.9,5.6-12.5,12.5-12.5h457
	c6.9,0,12.5,5.6,12.5,12.5v33.1H15z"/>
<path class="st0" d="M504.5,154c-4.1,0-7.5,3.4-7.5,7.5v207.8c0,6.9-5.6,12.5-12.5,12.5h-457c-6.9,0-12.5-5.6-12.5-12.5V241.6
	c0-4.1-3.4-7.5-7.5-7.5S0,237.4,0,241.6v127.8c0,15.2,12.3,27.5,27.5,27.5h457c15.2,0,27.5-12.3,27.5-27.5V161.5
	C512,157.4,508.6,154,504.5,154z"/>
<path class="st0" d="M230.6,151.4h50.5c4.1,0,7.5-3.4,7.5-7.5s-3.4-7.5-7.5-7.5h-50.5c-4.1,0-7.5,3.4-7.5,7.5
	S226.5,151.4,230.6,151.4z"/>
<path class="st0" d="M288.6,174.2c0-4.1-3.4-7.5-7.5-7.5h-50.5c-4.1,0-7.5,3.4-7.5,7.5s3.4,7.5,7.5,7.5h50.5
	C285.3,181.7,288.6,178.3,288.6,174.2z"/>
<path class="st0" d="M459,422.2H321.4c-4.1,0-7.5,3.4-7.5,7.5s3.4,7.5,7.5,7.5h61.4v14.3H101.4c-4.1,0-7.5,3.4-7.5,7.5
	s3.4,7.5,7.5,7.5h281.4v14.3H91L64.7,459L91,437.2h195.6c4.1,0,7.5-3.4,7.5-7.5s-3.4-7.5-7.5-7.5H88.3c-1.7,0-3.4,0.6-4.8,1.7
	l-35.4,29.3c-1.7,1.4-2.7,3.5-2.7,5.8s1,4.4,2.7,5.8l35.4,29.3c1.3,1.1,3,1.7,4.8,1.7H459c4.1,0,7.5-3.4,7.5-7.5v-58.6
	C466.5,425.6,463.2,422.2,459,422.2L459,422.2z M451.5,480.8h-53.7v-43.6h53.7V480.8z"/>
<path class="st0" d="M102.5,227.3c-4.1,0-7.5,3.4-7.5,7.5v29.9h-43c-4.1,0-7.5,3.4-7.5,7.5V353c0,4.1,3.4,7.5,7.5,7.5h101
	c4.1,0,7.5-3.4,7.5-7.5v-80.8c0-4.1-3.4-7.5-7.5-7.5h-43v-22.4h138.5v22.4h-43c-4.1,0-7.5,3.4-7.5,7.5V353c0,4.1,3.4,7.5,7.5,7.5
	h101c4.1,0,7.5-3.4,7.5-7.5v-80.8c0-4.1-3.4-7.5-7.5-7.5h-43v-22.4H402v22.4h-43c-4.1,0-7.5,3.4-7.5,7.5V353c0,4.1,3.4,7.5,7.5,7.5
	h101c4.1,0,7.5-3.4,7.5-7.5v-80.8c0-4.1-3.4-7.5-7.5-7.5h-43v-29.9c0-4.1-3.4-7.5-7.5-7.5h-146v-20.4h43c4.1,0,7.5-3.4,7.5-7.5
	v-80.8c0-4.1-3.4-7.5-7.5-7.5h-101c-4.1,0-7.5,3.4-7.5,7.5v80.8c0,4.1,3.4,7.5,7.5,7.5h43v20.4L102.5,227.3z M145.5,345.5h-86v-65.8
	h86V345.5z M299,345.5h-86v-65.8h86V345.5z M452.6,345.5h-86v-65.8h86V345.5z M213,126.1h86v65.8h-86V126.1z"/>
<path class="st0" d="M376.8,297.4c0,4.1,3.4,7.5,7.5,7.5h50.5c4.1,0,7.5-3.4,7.5-7.5s-3.4-7.5-7.5-7.5h-50.5
	C380.1,289.9,376.8,293.3,376.8,297.4z"/>
<path class="st0" d="M434.8,320.2h-50.5c-4.1,0-7.5,3.4-7.5,7.5s3.4,7.5,7.5,7.5h50.5c4.1,0,7.5-3.4,7.5-7.5
	S438.9,320.2,434.8,320.2z"/>
<path class="st0" d="M223.2,297.4c0,4.1,3.4,7.5,7.5,7.5h50.5c4.1,0,7.5-3.4,7.5-7.5s-3.4-7.5-7.5-7.5h-50.5
	C226.6,289.9,223.2,293.3,223.2,297.4z"/>
<path class="st0" d="M281.3,320.2h-50.5c-4.1,0-7.5,3.4-7.5,7.5s3.4,7.5,7.5,7.5h50.5c4.1,0,7.5-3.4,7.5-7.5
	S285.4,320.2,281.3,320.2z"/>
<path class="st0" d="M69.7,297.4c0,4.1,3.4,7.5,7.5,7.5h50.5c4.1,0,7.5-3.4,7.5-7.5s-3.4-7.5-7.5-7.5H77.2
	C73.1,289.9,69.7,293.3,69.7,297.4z"/>
<path class="st0" d="M127.7,320.2H77.2c-4.1,0-7.5,3.4-7.5,7.5s3.4,7.5,7.5,7.5h50.5c4.1,0,7.5-3.4,7.5-7.5S131.9,320.2,127.7,320.2
	z"/>
</svg>
